<?xml version="1.0" standalone="no"?>
<!DOCTYPE svg PUBLIC "-//W3C//DTD SVG 20010904//EN"
 "http://www.w3.org/TR/2001/REC-SVG-20010904/DTD/svg10.dtd">
<svg version="1.0" xmlns="http://www.w3.org/2000/svg"
 width="1024.000000pt" height="1024.000000pt" viewBox="0 0 1024.000000 1024.000000"
 preserveAspectRatio="xMidYMid meet">
<metadata>
Created by potrace 1.16, written by Peter Selinger 2001-2019
</metadata>
<g transform="translate(0.000000,1024.000000) scale(0.100000,-0.100000)"
fill="#000000" stroke="none">
<path d="M4710 9309 c-432 -37 -939 -169 -1349 -350 -250 -111 -430 -211 -673
-375 -441 -297 -737 -595 -1072 -1082 -151 -220 -329 -558 -445 -849 -156
-392 -243 -815 -270 -1323 -12 -219 6 -569 40 -810 31 -218 140 -606 190 -673
14 -19 23 -54 30 -114 33 -295 137 -512 356 -742 66 -70 108 -124 130 -168 72
-146 236 -348 537 -661 67 -71 86 -96 75 -102 -20 -13 -4 -23 18 -12 10 6 54
15 98 22 44 7 113 18 154 26 101 19 236 18 297 -3 63 -21 142 -71 177 -113 30
-35 29 -51 0 -30 -10 7 -6 1 10 -13 15 -14 27 -33 27 -42 0 -18 -5 -19 -31 -5
-16 9 -21 7 -29 -14 -5 -13 -15 -28 -22 -33 -19 -12 -44 -61 -57 -111 -7 -23
-16 -40 -21 -37 -6 4 -10 -4 -10 -17 0 -42 -47 -102 -210 -268 -225 -230 -393
-324 -724 -410 -187 -48 -304 -64 -421 -58 -102 6 -123 14 -160 62 -37 49 -41
92 -17 173 31 101 107 210 273 391 45 49 65 107 33 96 -32 -12 -117 -80 -194
-156 -112 -112 -190 -218 -249 -338 -33 -68 -36 -83 -36 -160 0 -75 3 -90 27
-126 42 -65 98 -87 233 -92 136 -5 272 15 440 64 338 100 488 170 719 334 146
103 311 256 342 317 21 41 24 46 54 83 l21 25 -17 -35 c-12 -24 -13 -35 -5
-38 6 -2 40 -19 74 -38 130 -72 380 -187 487 -224 36 -12 94 -33 130 -47 154
-61 517 -149 769 -188 239 -37 377 -48 606 -48 322 -1 568 27 895 99 155 35
187 43 355 91 363 104 841 342 1168 582 405 296 758 656 975 991 30 47 76 117
102 155 101 149 230 381 292 525 264 610 393 1250 373 1860 -15 475 -94 900
-225 1215 -90 217 -187 398 -197 368 -2 -6 5 -74 16 -151 25 -164 27 -352 7
-467 -64 -359 -208 -719 -432 -1080 -55 -88 -207 -296 -263 -361 -20 -23 -65
-74 -100 -115 -204 -233 -776 -773 -874 -824 -65 -34 -77 -42 -69 -50 4 -5 2
-5 -5 -2 -6 4 -26 -8 -45 -26 -58 -55 -100 -84 -83 -57 3 5 1 10 -5 10 -7 0
-10 -6 -7 -14 7 -16 -15 -35 -143 -127 -112 -81 -189 -113 -174 -74 4 8 9 13
13 11 3 -2 6 7 6 20 0 15 -6 24 -16 24 -12 0 -18 14 -23 61 -10 99 -10 99 24
99 20 0 30 5 30 15 0 12 -20 15 -119 15 -69 0 -122 4 -126 10 -3 6 -12 10 -18
10 -7 0 -7 -4 2 -9 12 -8 10 -12 -10 -21 -17 -8 -25 -19 -24 -33 1 -12 -3 -28
-9 -36 -8 -11 -8 -13 2 -7 7 4 12 1 12 -8 0 -10 -6 -13 -15 -10 -8 4 -15 12
-15 20 0 16 -16 19 -25 4 -4 -6 -11 -8 -16 -5 -5 4 -9 -3 -9 -15 0 -16 4 -20
19 -15 11 3 23 1 26 -6 6 -8 -4 -10 -34 -7 -26 2 -41 -1 -41 -8 0 -11 -62 -23
-150 -29 -25 -1 -54 -6 -65 -10 -11 -4 -4 4 15 16 19 13 37 27 38 32 2 4 10 3
18 -4 11 -9 15 -8 20 5 3 9 16 16 28 17 12 0 15 3 8 6 -8 3 13 21 52 45 36 21
71 36 78 32 7 -5 8 -3 3 6 -6 10 -4 12 8 7 10 -4 16 -2 14 6 -1 7 9 11 28 10
17 0 24 1 18 4 -10 3 -9 8 2 20 9 8 22 12 31 9 9 -4 12 -2 8 5 -9 15 17 30 40
23 16 -6 17 -4 5 9 -12 13 -17 13 -34 3 -69 -44 -242 -148 -310 -187 -162 -92
-207 -119 -185 -114 33 8 73 28 82 39 3 5 17 2 32 -7 19 -13 24 -14 20 -3 -7
19 15 31 29 17 9 -9 8 -10 -7 -5 -15 6 -17 4 -11 -15 9 -30 -9 -48 -54 -56
-21 -3 -49 -16 -62 -28 l-22 -21 5 22 c8 29 -6 28 -26 -2 -8 -13 -30 -27 -47
-31 -22 -5 -28 -10 -18 -15 13 -9 3 -12 -56 -23 -11 -2 -19 -9 -17 -17 3 -11
0 -11 -14 1 -12 9 -15 9 -10 2 4 -7 2 -13 -3 -13 -6 0 -11 5 -11 11 0 7 -10 5
-25 -5 -21 -14 -24 -14 -19 -1 7 18 -7 20 -24 3 -7 -7 -12 -8 -12 -2 0 18 103
64 130 59 21 -5 22 -4 5 3 -18 8 -17 11 16 25 20 8 39 20 43 25 3 6 -72 -26
-166 -70 -177 -81 -397 -171 -615 -249 -67 -24 -119 -47 -117 -51 3 -4 -1 -6
-8 -3 -7 3 -69 -11 -138 -31 -549 -159 -985 -223 -1444 -211 -337 9 -546 44
-796 134 -256 92 -515 280 -638 460 -143 210 -190 363 -192 613 -1 145 23 282
74 440 14 41 22 86 20 100 -4 18 1 34 16 50 12 14 19 19 15 13 -3 -7 -4 -13
-1 -13 3 0 19 27 36 60 24 48 28 64 20 85 -5 14 -6 24 -1 21 11 -7 35 20 28
31 -3 5 -2 24 2 43 l7 35 5 -32 c3 -20 2 -30 -5 -26 -5 4 -7 -1 -2 -12 4 -11
0 -25 -10 -37 -10 -10 -15 -21 -12 -24 3 -3 40 52 82 122 56 95 73 130 64 136
-9 6 -7 8 7 6 14 -2 20 2 19 14 -1 10 1 16 5 14 4 -3 25 23 48 57 23 34 61 85
85 114 96 115 109 133 102 145 -4 6 -3 8 4 4 6 -3 19 5 29 20 10 14 41 51 68
81 28 31 49 60 48 64 -2 5 1 8 6 6 15 -4 182 174 174 186 -3 7 -3 9 2 5 10 -9
25 2 119 87 64 58 74 71 59 77 -16 7 -15 7 3 5 11 -1 32 6 47 15 14 10 28 14
31 9 10 -15 -20 -159 -39 -187 -9 -15 -38 -45 -63 -68 -25 -23 -69 -63 -100
-91 -63 -58 -201 -216 -257 -295 -22 -30 -42 -57 -46 -60 -15 -11 -119 -172
-119 -183 1 -7 7 -1 15 13 16 29 20 19 4 -11 -5 -11 -14 -17 -18 -15 -26 17
-221 -335 -290 -523 -60 -164 -89 -365 -72 -497 35 -274 174 -514 391 -678
190 -143 444 -246 745 -303 110 -20 549 -29 730 -14 523 43 1067 190 1665 448
224 97 547 263 675 348 28 18 97 63 155 100 198 127 456 330 734 576 180 159
361 353 352 376 -3 6 0 10 7 8 18 -6 178 201 200 258 12 31 -2 18 -33 -30 -36
-59 -39 -41 -5 28 21 41 23 50 11 55 -9 3 -12 12 -8 22 5 15 4 15 -9 2 -27
-29 -101 -141 -96 -147 9 -9 27 7 27 25 0 9 13 26 28 36 15 11 22 14 16 7 -8
-8 -9 -25 -3 -49 10 -45 11 -57 3 -49 -4 3 -20 -1 -35 -9 -16 -8 -29 -11 -28
-7 3 19 -2 30 -15 30 -8 0 -12 -6 -8 -15 3 -10 1 -13 -7 -8 -14 9 -52 -34 -46
-52 3 -7 1 -11 -4 -8 -5 3 -25 -14 -45 -38 -38 -46 -42 -56 -27 -56 14 0 42
30 37 39 -3 4 1 8 9 8 8 0 16 -6 19 -14 3 -7 0 -12 -6 -10 -6 1 -17 -9 -24
-21 -15 -30 -34 -50 -34 -36 0 5 4 14 9 19 6 6 2 10 -12 11 -15 1 -39 -18 -77
-63 -76 -89 -174 -189 -245 -249 -33 -29 -94 -81 -135 -116 -135 -116 -293
-243 -390 -313 -52 -38 -111 -80 -130 -94 -138 -102 -394 -253 -595 -354 -641
-320 -1303 -518 -1890 -567 -157 -13 -486 -13 -616 0 -206 21 -476 92 -617
164 -110 56 -249 154 -313 223 -190 200 -293 465 -274 703 8 106 49 286 83
365 37 85 154 319 162 325 4 3 14 19 23 36 84 163 521 694 572 694 11 0 15
-11 15 -42 -1 -86 -15 -117 -88 -192 -107 -111 -162 -180 -262 -331 -141 -214
-234 -408 -281 -590 -20 -78 -23 -113 -23 -260 0 -167 1 -171 33 -260 18 -49
45 -112 59 -140 74 -148 248 -304 433 -389 153 -71 375 -127 574 -147 172 -17
554 -6 715 20 449 72 679 132 1065 276 284 105 700 304 916 437 317 195 736
533 1004 809 216 223 452 565 546 796 103 249 142 539 97 723 -16 65 -71 191
-111 253 -43 67 -151 175 -225 226 -119 80 -296 158 -417 182 -260 52 -469 68
-680 51 -120 -10 -135 -10 -200 10 -71 21 -94 33 -83 44 22 22 336 75 453 76
30 1 35 3 20 9 -11 4 -31 8 -45 9 -24 2 -23 3 5 10 l30 8 -30 2 -30 3 35 7 35
7 -37 2 c-21 0 -38 -2 -38 -6 0 -5 -26 -7 -57 -5 -33 2 -122 -8 -208 -23 -184
-33 -233 -31 -340 17 -44 19 -89 39 -100 43 -14 5 15 14 95 31 111 22 242 46
267 47 26 1 0 17 -28 17 -23 0 -29 4 -29 22 0 17 -3 19 -12 10 -7 -7 -29 -12
-50 -12 -36 0 -38 2 -38 30 0 17 4 30 9 30 5 0 7 9 4 19 -4 16 -1 19 16 14 14
-3 21 -1 21 9 0 18 -82 42 -120 34 -18 -3 -30 -1 -30 5 0 7 -16 9 -42 5 -136
-17 340 86 592 129 205 34 297 44 525 54 744 33 1295 -122 1680 -473 33 -30
61 -53 63 -51 7 7 -107 234 -150 300 -154 232 -358 477 -550 656 -226 211
-356 312 -588 457 -549 344 -1216 573 -1830 627 -176 16 -570 18 -730 4z m323
-247 c177 -88 290 -249 304 -433 l6 -77 43 19 c108 48 212 45 331 -11 172 -80
285 -284 254 -456 -14 -74 -58 -167 -105 -221 -24 -27 -65 -56 -114 -80 l-76
-38 -835 -3 c-934 -3 -869 -8 -982 69 -70 47 -115 98 -148 168 -23 50 -26 69
-26 167 0 108 1 112 39 190 47 95 128 179 212 220 49 24 74 29 154 32 53 2
112 0 131 -6 l36 -10 11 59 c21 112 109 257 204 337 110 93 204 123 365 119
109 -3 115 -5 196 -45z m1920 -509 c32 -37 25 -88 -15 -113 -42 -26 -44 -25
-79 9 -26 26 -28 32 -18 60 20 56 80 79 112 44z m-405 -12 c88 -45 136 -125
136 -226 0 -59 -4 -78 -26 -116 -40 -68 -88 -105 -151 -119 -60 -12 -95 -7
-124 18 -10 10 -41 28 -68 42 -78 39 -105 84 -105 177 0 102 35 154 140 212
67 37 141 41 198 12z m-3368 -123 c77 -36 131 -86 170 -160 29 -53 35 -76 38
-145 3 -59 1 -88 -8 -98 -10 -12 -15 -13 -21 -4 -4 7 -13 9 -20 6 -25 -12 -54
-32 -61 -42 -4 -6 -8 -2 -8 8 0 9 -4 17 -10 17 -5 0 -10 -8 -10 -17 0 -13 -3
-14 -12 -5 -17 17 -28 15 -28 -5 0 -16 -1 -16 -16 -1 -13 12 -29 15 -77 10
-44 -4 -58 -2 -53 7 4 6 0 14 -11 17 -53 17 -93 39 -93 51 0 7 -3 12 -7 11
-14 -2 -48 15 -56 29 -4 7 -17 13 -27 13 -11 0 -20 5 -20 11 0 6 7 8 16 5 27
-10 -4 23 -38 40 -15 8 -27 18 -27 22 3 17 -2 32 -8 30 -5 -2 -9 1 -10 5 -1 4
-9 15 -18 24 -9 8 -14 22 -11 29 3 8 1 14 -4 14 -6 0 -10 -11 -10 -25 0 -14
-4 -25 -8 -25 -16 0 0 67 21 92 37 41 96 81 150 100 76 27 203 21 277 -14z
m-685 -755 c141 -49 231 -168 250 -330 4 -35 8 -63 10 -63 1 0 22 7 45 15 128
45 289 -27 354 -157 21 -42 26 -66 26 -127 -1 -125 -50 -209 -151 -260 l-62
-31 -604 0 c-655 0 -633 -2 -708 56 -106 81 -130 250 -54 383 64 111 217 176
335 142 l31 -9 7 51 c13 112 117 257 224 311 89 45 201 52 297 19z m2685 -292
c192 -35 246 -50 348 -90 185 -75 311 -141 474 -250 132 -88 183 -130 269
-217 178 -183 295 -349 376 -534 63 -144 34 -193 -38 -66 -108 192 -239 376
-348 489 -110 115 -356 302 -393 300 -10 -1 -16 2 -13 7 3 5 2 11 -3 14 -4 2
-9 -5 -9 -16 -2 -15 3 -19 18 -15 13 4 19 1 16 -6 -2 -7 -11 -11 -19 -11 -8 1
-15 -5 -15 -12 0 -8 11 -14 26 -15 14 0 20 -3 14 -6 -18 -7 -16 -23 2 -23 8 0
15 -4 15 -10 0 -5 9 -10 20 -10 11 0 20 -5 20 -11 0 -7 -7 -8 -17 -3 -20 8
-49 9 -105 1 -47 -7 -59 -14 -51 -32 3 -8 0 -15 -6 -15 -6 0 -11 5 -11 10 0 6
-5 10 -11 10 -6 0 -9 -9 -6 -20 4 -15 0 -20 -13 -20 -13 0 -17 5 -13 20 3 11
0 20 -6 20 -6 0 -11 -10 -11 -21 0 -17 -5 -20 -25 -17 -14 3 -28 1 -31 -3 -5
-8 18 -13 54 -12 6 1 12 -3 12 -8 0 -11 -2 -11 -57 0 -23 4 -42 5 -41 2 2 -21
-4 -31 -21 -31 -16 0 -20 -10 -26 -62 -4 -35 -7 -80 -8 -100 -2 -30 -6 -38
-22 -39 -15 0 -16 -2 -5 -6 8 -4 20 -13 27 -22 10 -14 12 -14 19 2 6 16 8 15
20 -9 8 -14 14 -32 14 -39 0 -7 6 -16 13 -18 9 -4 9 -6 -1 -6 -8 -1 -16 8 -19
19 -6 23 -23 27 -23 5 0 -8 -4 -15 -10 -15 -5 0 -10 5 -10 11 0 8 -5 8 -15 -1
-12 -10 -15 -9 -16 6 0 16 -1 17 -7 3 -4 -9 -16 -15 -26 -13 -28 4 -56 -14
-50 -31 3 -7 1 -22 -6 -32 -9 -16 -10 -15 -5 7 5 22 4 23 -5 7 -7 -10 -9 -24
-6 -32 3 -9 0 -12 -8 -9 -7 3 -18 -7 -24 -21 -7 -14 -25 -34 -42 -43 -35 -20
-37 -28 -10 -37 11 -3 20 -10 20 -15 0 -5 3 -16 7 -25 5 -15 3 -16 -15 -6 -12
7 -22 8 -23 4 0 -4 0 -42 1 -84 1 -68 -1 -80 -23 -103 -32 -34 -94 -37 -99 -5
-3 18 -7 15 -28 -19 -19 -31 -31 -40 -51 -40 -40 1 -51 -10 -43 -45 8 -38 30
-63 38 -44 3 6 3 2 1 -9 -3 -12 2 -40 11 -63 9 -22 14 -46 11 -53 -3 -8 -9 -3
-15 12 -15 37 -69 93 -75 78 -3 -8 -6 -6 -6 5 -1 13 -10 17 -41 17 -22 0 -40
5 -40 10 0 6 5 10 11 10 5 0 7 5 3 11 -5 8 -9 8 -14 -1 -5 -8 -23 -11 -47 -9
-38 4 -39 3 -35 -25 l5 -29 -61 5 c-48 5 -68 2 -96 -13 -20 -10 -47 -19 -61
-19 -22 0 -25 -4 -25 -35 0 -35 -1 -35 -43 -35 -35 0 -49 6 -74 33 -18 17 -36
44 -42 59 -12 32 -46 56 -87 62 -16 2 -21 1 -11 -1 32 -8 17 -23 -24 -23 -32
0 -40 3 -36 15 4 8 1 17 -6 21 -7 4 -9 3 -4 -1 9 -11 -23 -46 -35 -39 -4 3 -8
2 -7 -3 3 -19 -2 -33 -12 -33 -7 0 -18 -8 -25 -17 -12 -16 -12 -16 -7 6 5 18
3 22 -6 16 -10 -6 -11 -2 -6 16 4 13 4 21 0 17 -14 -13 -14 -61 0 -87 27 -51
49 -61 138 -61 108 0 173 -20 229 -70 74 -65 91 -135 57 -246 -24 -78 -148
-154 -357 -218 -147 -45 -143 -45 -201 13 -73 72 -145 81 -218 25 -74 -56 -83
-135 -27 -240 33 -62 36 -74 32 -135 -3 -58 -7 -69 -33 -93 -79 -71 -209 -104
-292 -75 -17 5 -55 38 -83 72 -44 52 -52 57 -46 34 l7 -28 -22 20 c-20 19 -24
19 -39 6 -22 -20 -30 -19 -31 3 0 15 -1 15 -8 -2 -6 -15 -10 -16 -16 -7 -6 11
-9 11 -16 0 -7 -11 -9 -10 -9 4 0 11 -8 17 -25 17 -29 0 -32 -8 -10 -24 13 -9
11 -11 -9 -11 -13 0 -22 3 -19 8 2 4 -7 7 -20 7 -18 0 -27 -7 -31 -26 -4 -15
-5 -28 -3 -31 3 -2 7 8 11 22 7 27 26 35 26 10 0 -8 -4 -15 -9 -15 -5 0 -13
-10 -17 -22 -6 -21 -7 -21 -21 -2 -13 18 -14 17 -7 -11 10 -43 52 -120 83
-149 33 -31 213 -100 311 -117 98 -18 558 -18 690 0 327 44 633 141 990 313
l165 79 0 62 c1 105 49 172 143 202 72 24 132 16 190 -25 55 -39 41 -45 239
104 191 143 459 407 560 551 101 144 120 182 128 250 9 83 39 144 75 151 37 8
47 34 66 162 11 77 21 116 37 137 18 25 22 44 22 105 0 64 -5 83 -30 130 -25
46 -39 60 -85 82 -62 31 -176 61 -295 76 l-80 11 -84 80 -83 80 28 8 c45 12
400 8 489 -6 364 -57 663 -242 772 -479 71 -154 95 -315 69 -472 -49 -301
-160 -539 -402 -860 -180 -239 -562 -598 -897 -842 -466 -341 -1171 -662
-1747 -797 -552 -129 -1057 -151 -1409 -61 -345 88 -599 273 -706 514 -73 166
-80 381 -19 586 31 102 129 315 195 423 101 163 267 367 300 367 25 0 39 -45
39 -126 0 -71 -2 -78 -40 -134 -59 -86 -146 -256 -180 -349 -51 -139 -65 -214
-64 -351 0 -112 4 -134 30 -210 38 -110 85 -179 182 -271 187 -179 474 -260
911 -258 117 0 142 3 127 12 -70 44 -247 175 -301 224 -94 84 -225 236 -295
344 -57 88 -113 193 -124 231 -3 9 -26 26 -53 38 -54 24 -107 70 -130 115 -15
29 -15 30 21 60 l37 31 -30 97 c-17 54 -37 137 -46 185 -8 48 -20 117 -27 154
-18 106 6 483 42 668 53 271 183 564 349 785 164 219 378 406 614 535 159 87
415 172 613 204 134 22 492 15 644 -13z m-2855 -933 c2 -7 6 -29 9 -49 6 -34
9 -37 38 -35 25 1 35 -5 47 -26 19 -33 16 -37 -40 -46 -43 -7 -44 -8 -49 -52
-4 -36 -9 -46 -26 -48 -19 -3 -22 3 -28 47 l-7 51 -39 0 c-39 0 -40 1 -40 34
0 33 2 35 38 38 31 3 37 7 40 28 6 56 13 70 33 70 11 0 21 -6 24 -12z m-660
-93 c100 -48 164 -156 152 -257 -9 -73 -27 -103 -62 -104 -17 0 -38 -4 -48 -8
-9 -5 -34 -5 -54 -1 -53 10 -163 55 -163 67 0 6 -7 7 -16 4 -8 -3 -13 -2 -10
3 3 4 -16 20 -43 34 -27 15 -54 34 -61 42 -7 8 -21 15 -31 15 -22 0 -23 10 -8
64 13 47 77 118 132 146 52 26 151 24 212 -5z m4101 16 c-3 -5 14 -6 38 -4 83
10 154 -35 212 -133 27 -47 48 -136 33 -145 -6 -4 -5 -17 3 -34 10 -22 10 -29
1 -32 -8 -3 -10 -15 -6 -33 3 -16 2 -37 -2 -47 -4 -10 -8 -29 -9 -42 -1 -13
-12 -31 -24 -41 -12 -10 -25 -33 -29 -52 -8 -42 -42 -99 -57 -97 -6 1 -19 -1
-28 -5 -12 -5 -34 4 -71 28 -30 20 -61 36 -69 36 -8 0 -45 -16 -81 -35 -108
-58 -185 -57 -236 1 -51 58 -87 158 -91 249 -3 56 -1 62 10 45 6 -9 10 -10 10
-3 0 6 -5 15 -10 18 -13 8 6 45 22 45 9 0 9 -3 0 -12 -15 -15 -16 -28 -2 -28
6 0 10 6 10 14 0 19 66 73 106 88 34 12 113 118 115 153 0 11 3 15 5 8 5 -11
95 32 102 48 2 5 9 6 17 3 7 -3 16 -1 20 5 3 6 8 11 11 11 3 0 3 -4 0 -9z
m-4431 -975 c54 -23 81 -97 54 -148 -16 -29 -90 -59 -128 -52 -68 14 -110 96
-75 149 21 32 70 65 97 65 10 0 33 -6 52 -14z m7547 -98 c3 -41 5 -43 36 -46
25 -3 35 -10 43 -29 13 -34 -4 -53 -46 -53 -36 0 -45 -13 -45 -62 0 -44 -30
-33 -44 17 -11 37 -15 40 -49 43 -35 3 -37 5 -37 37 0 33 2 35 40 41 38 6 40
8 40 44 0 43 5 50 36 50 20 0 23 -6 26 -42z m-285 -483 c68 -20 202 -125 203
-159 0 -30 -101 -171 -161 -224 -36 -31 -56 -42 -44 -22 4 6 -1 7 -11 3 -13
-5 -14 -8 -5 -11 19 -6 -43 -58 -99 -84 -25 -11 -52 -24 -60 -28 -11 -6 -15
-2 -16 14 -1 16 9 26 37 40 48 24 52 46 7 41 -48 -4 -73 -16 -57 -26 18 -11
11 -15 -33 -23 -25 -4 -38 -3 -38 4 0 6 -11 8 -27 5 -24 -6 -23 -4 7 11 43 22
45 23 38 29 -3 3 -25 -4 -49 -15 -24 -11 -60 -20 -80 -20 -32 0 -38 4 -50 33
-22 50 -17 172 9 230 75 168 256 253 429 202z m-5563 -491 c31 -30 14 -98 -27
-113 -70 -26 -124 61 -71 114 20 20 78 19 98 -1z m4421 -469 c192 -50 328
-209 357 -416 6 -46 12 -85 13 -87 1 -1 28 7 61 19 175 61 378 -30 467 -210
30 -62 32 -72 32 -171 -1 -90 -4 -112 -25 -155 -35 -72 -122 -155 -201 -193
l-67 -32 -768 0 -769 0 -63 30 c-70 33 -162 115 -197 175 -51 87 -53 223 -7
329 67 151 198 244 357 253 54 3 93 0 121 -9 l40 -14 17 79 c10 49 29 101 49
135 61 102 212 234 304 267 53 19 206 19 279 0z m1097 -42 c10 -9 18 -30 18
-49 0 -62 -66 -94 -118 -58 -27 19 -30 78 -5 106 20 23 80 24 105 1z m-1991
-243 c5 -39 17 -52 42 -44 35 10 9 -10 -66 -50 -73 -39 -213 -120 -237 -136
-8 -6 -28 -17 -45 -25 -16 -9 -59 -31 -93 -50 -74 -41 -77 -41 -79 -15 -2 20
13 28 19 10 5 -15 89 30 119 63 16 18 31 27 38 23 7 -5 36 7 66 25 48 29 52
34 37 45 -9 8 -20 14 -24 14 -13 0 -9 -18 5 -23 6 -2 5 -3 -4 -2 -9 1 -16 -4
-15 -13 0 -9 -11 -18 -27 -23 -15 -4 -25 -4 -22 1 3 5 2 10 -2 13 -5 2 -2 2 5
1 6 -2 12 3 12 11 0 8 7 15 15 15 14 0 19 12 16 33 -2 10 17 9 41 -4 15 -8 19
-8 13 1 -4 6 1 20 10 30 18 20 13 56 -5 45 -5 -3 -10 -1 -10 6 0 7 9 9 23 5
12 -3 29 -6 37 -6 13 0 13 -1 0 -10 -12 -8 -11 -10 8 -10 12 0 22 4 22 10 0 5
13 7 29 4 16 -3 37 -1 48 5 16 9 14 11 -12 9 -63 -4 -125 2 -125 12 0 6 18 10
40 10 29 0 40 4 40 15 0 11 11 15 40 15 22 0 41 -4 41 -10z m-1097 -918 c124
-58 216 -184 231 -315 6 -54 8 -58 28 -53 70 20 122 25 163 16 84 -19 174 -93
220 -180 37 -72 39 -170 5 -242 -28 -57 -96 -122 -159 -151 -46 -22 -57 -22
-630 -25 l-583 -3 -59 27 c-65 29 -133 94 -156 149 -8 20 -14 68 -14 113 0 68
4 87 30 140 55 110 150 174 260 176 36 1 77 -2 91 -6 26 -8 27 -6 33 40 20
143 167 306 310 343 59 15 164 2 230 -29z m1958 -347 c51 -47 46 -114 -11
-148 -42 -24 -68 -21 -102 12 -37 38 -38 82 -3 128 32 42 76 45 116 8z m-651
3 c0 -7 2 -57 4 -111 2 -57 8 -104 14 -110 7 -7 52 -14 101 -15 95 -4 99 -7
100 -69 0 -22 -3 -23 -88 -23 -119 0 -124 -4 -130 -114 l-5 -86 -37 0 -38 0
-4 88 c-2 48 -7 93 -12 100 -5 8 -38 12 -105 12 -94 0 -99 1 -104 22 -4 12 -4
32 -1 44 5 19 14 22 102 27 52 4 100 11 106 17 5 5 11 49 13 97 6 129 7 133
48 133 21 0 35 -5 36 -12z m-2948 -38 c138 -52 248 -230 230 -371 -4 -30 -9
-37 -18 -29 -9 8 -15 8 -20 0 -3 -5 -17 -10 -30 -10 -13 0 -47 -5 -75 -12 -40
-9 -55 -18 -66 -40 -19 -37 -65 -59 -136 -66 -82 -7 -156 27 -186 84 -7 14
-38 29 -94 48 -46 14 -94 35 -107 46 -22 19 -23 23 -13 75 22 106 87 204 170
252 95 56 232 65 345 23z m564 -714 c22 -19 28 -32 28 -66 0 -35 -6 -47 -33
-71 -36 -33 -60 -36 -102 -14 -60 31 -67 90 -16 141 42 42 82 45 123 10z m488
-131 c33 -33 32 -70 -4 -106 -36 -35 -70 -37 -107 -5 -37 31 -38 90 -2 118 34
26 84 23 113 -7z m464 -51 c12 -15 21 -35 21 -45 0 -28 -49 -79 -75 -79 -40 0
-81 55 -69 93 18 62 86 78 123 31z"/>
<path d="M6395 8478 c-41 -15 -54 -26 -86 -77 l-28 -43 2 35 c2 20 6 39 10 43
13 13 7 27 -6 15 -8 -6 -16 -9 -18 -6 -3 2 -5 -5 -5 -15 0 -11 4 -20 8 -20 4
0 8 -5 8 -11 0 -5 -4 -7 -10 -4 -7 4 -7 -3 0 -20 6 -15 10 -46 10 -71 0 -37 6
-51 37 -85 47 -52 81 -69 138 -69 52 0 89 16 125 54 33 36 41 136 15 190 -35
73 -126 112 -200 84z"/>
<path d="M6871 6683 c12 -23 19 -58 19 -92 0 -56 -40 -305 -65 -402 -8 -31
-15 -79 -15 -105 0 -60 -16 -93 -57 -119 -17 -11 -46 -45 -64 -75 -111 -185
-297 -405 -476 -563 -112 -98 -280 -232 -360 -285 -46 -30 -50 -36 -38 -49 31
-30 6 -170 -37 -210 -33 -30 -96 -59 -144 -67 -56 -10 -114 7 -170 50 l-47 36
-157 -76 c-525 -254 -898 -346 -1400 -346 -229 0 -469 30 -551 70 l-37 17 29
-49 c101 -171 232 -341 341 -443 96 -89 127 -112 260 -189 114 -65 116 -66
325 -36 287 40 668 154 1023 307 144 62 387 184 490 246 234 141 511 348 699
523 138 129 390 402 476 516 150 199 264 409 307 563 32 116 32 311 1 410 -44
139 -149 274 -284 364 -78 52 -93 53 -68 4z"/>
<path d="M8187 8807 c-32 -83 54 -185 146 -173 21 2 56 16 77 30 31 20 40 34
50 76 10 40 10 54 1 63 -9 9 -11 8 -6 -5 4 -11 -1 -20 -14 -28 -12 -6 -21 -7
-21 -2 0 4 -34 9 -76 11 -42 1 -86 6 -98 10 -11 5 -26 6 -33 4 -6 -2 -13 4
-15 14 -3 17 -4 17 -11 0z"/>
<path d="M2535 1984 c-64 -9 -145 -27 -145 -33 0 -3 8 -11 18 -18 10 -6 66
-49 123 -95 131 -105 246 -181 263 -175 45 18 75 211 39 252 -41 47 -195 83
-298 69z"/>
<path d="M8280 1413 l0 -130 268 -6 c339 -7 317 -16 308 136 -4 62 -9 113 -11
115 -2 2 -130 6 -284 9 l-281 6 0 -130z"/>
<path d="M7975 1518 c-126 -4 -242 -8 -257 -9 -27 -1 -28 -3 -30 -63 -2 -61 1
-148 5 -152 5 -5 365 -24 447 -24 l89 0 -2 125 c-1 73 -6 126 -12 127 -5 2
-113 0 -240 -4z"/>
<path d="M2390 1499 c-207 -63 -286 -79 -385 -79 -71 0 -107 4 -121 14 -27 19
-153 60 -161 52 -3 -3 -12 2 -19 12 -11 15 -13 7 -14 -55 0 -128 54 -233 157
-300 48 -33 64 -38 112 -38 136 0 374 126 442 233 28 44 55 135 48 162 -4 13
-11 13 -59 -1z"/>
<path d="M7708 1224 c-16 -5 -18 -20 -18 -119 0 -131 -2 -128 90 -138 46 -6
257 -50 404 -86 22 -5 44 -8 48 -5 10 6 9 269 -1 304 -7 25 -8 25 -156 31 -83
4 -195 9 -250 12 -55 3 -108 4 -117 1z"/>
<path d="M8293 1036 c-1 -125 2 -178 11 -185 11 -10 290 -78 411 -101 70 -13
105 -4 131 34 14 22 16 54 15 213 -1 104 -5 191 -9 194 -4 4 -131 10 -282 13
l-275 7 -2 -175z"/>
</g>
</svg>
